<svg width="23" height="23" viewBox="0 0 23 23" fill="none" xmlns="http://www.w3.org/2000/svg">
<path d="M8.31043 20.334H13.8507C18.4676 20.334 20.3143 18.4872 20.3143 13.8703V8.33008C20.3143 3.7132 18.4676 1.86646 13.8507 1.86646H8.31043C3.69355 1.86646 1.8468 3.7132 1.8468 8.33008V13.8703C1.8468 18.4872 3.69355 20.334 8.31043 20.334Z" stroke="#8B8C91" stroke-width="1.38506" stroke-linecap="round" stroke-linejoin="round"/>
<path d="M14.3123 17.1023C15.328 17.1023 16.1591 16.2712 16.1591 15.2555V6.94514C16.1591 5.92943 15.328 5.09839 14.3123 5.09839C13.2966 5.09839 12.4656 5.92943 12.4656 6.94514V15.2555C12.4656 16.2712 13.2874 17.1023 14.3123 17.1023Z" stroke="#8B8C91" stroke-width="1.38506" stroke-linecap="round" stroke-linejoin="round"/>
<path d="M7.8487 17.1023C8.86442 17.1023 9.69545 16.2713 9.69545 15.2556V12.0238C9.69545 11.008 8.86442 10.177 7.8487 10.177C6.83299 10.177 6.00195 11.008 6.00195 12.0238V15.2556C6.00195 16.2713 6.82376 17.1023 7.8487 17.1023Z" stroke="#8B8C91" stroke-width="1.38506" stroke-linecap="round" stroke-linejoin="round"/>
</svg>
