<svg width="21" height="21" viewBox="0 0 21 21" fill="none" xmlns="http://www.w3.org/2000/svg">
<path d="M18.5319 9.5832V3.78538C18.5319 2.50645 17.9863 1.99487 16.6306 1.99487H13.186C11.8303 1.99487 11.2847 2.50645 11.2847 3.78538V9.5832C11.2847 10.8621 11.8303 11.3737 13.186 11.3737H16.6306C17.9863 11.3737 18.5319 10.8621 18.5319 9.5832Z" fill="#8B8C91"/>
<path d="M9.57949 11.4592V17.257C9.57949 18.536 9.03382 19.0475 7.67815 19.0475H4.23356C2.87789 19.0475 2.33221 18.536 2.33221 17.257V11.4592C2.33221 10.1803 2.87789 9.6687 4.23356 9.6687H7.67815C9.03382 9.6687 9.57949 10.1803 9.57949 11.4592Z" fill="#8B8C91"/>
<path d="M18.5319 17.2569V14.8696C18.5319 13.5907 17.9863 13.0791 16.6306 13.0791H13.186C11.8303 13.0791 11.2847 13.5907 11.2847 14.8696V17.2569C11.2847 18.5359 11.8303 19.0475 13.186 19.0475H16.6306C17.9863 19.0475 18.5319 18.5359 18.5319 17.2569Z" fill="#8B8C91"/>
<path d="M9.57949 6.17272V3.78538C9.57949 2.50645 9.03382 1.99487 7.67815 1.99487H4.23356C2.87789 1.99487 2.33221 2.50645 2.33221 3.78538V6.17272C2.33221 7.45165 2.87789 7.96322 4.23356 7.96322H7.67815C9.03382 7.96322 9.57949 7.45165 9.57949 6.17272Z" fill="#8B8C91"/>
</svg>
