<svg width="77" height="77" viewBox="0 0 77 77" fill="none" xmlns="http://www.w3.org/2000/svg">
<path d="M27.8468 28.3188V44.0162C27.8468 45.549 29.0841 46.7863 30.6169 46.7863H46.3143" stroke="#8B8C91" stroke-width="1.38506" stroke-miterlimit="10" stroke-linecap="round" stroke-linejoin="round"/>
<path d="M30.6169 42.1695L34.8552 37.2203C35.5569 36.4077 36.8035 36.3523 37.5607 37.1187L38.4379 37.9959C39.195 38.7531 40.4416 38.7069 41.1434 37.8943L45.3909 32.9358" stroke="#8B8C91" stroke-width="1.38506" stroke-miterlimit="10" stroke-linecap="round" stroke-linejoin="round"/>
<g opacity="0.2" filter="url(#filter0_f_224_144)">
<path d="M28.3901 28.4834V45.5795C28.3901 47.2489 29.7377 48.5965 31.407 48.5965H48.5032" stroke="#8B8C91" stroke-width="1.50848" stroke-miterlimit="10" stroke-linecap="round" stroke-linejoin="round"/>
<path d="M31.4072 43.5683L36.0232 38.178C36.7875 37.293 38.1451 37.2326 38.9698 38.0673L39.9251 39.0227C40.7498 39.8474 42.1074 39.7971 42.8717 38.9121L47.4977 33.5117" stroke="#8B8C91" stroke-width="1.50848" stroke-miterlimit="10" stroke-linecap="round" stroke-linejoin="round"/>
</g>
<defs>
<filter id="filter0_f_224_144" x="-0.848879" y="-0.755556" width="78.5912" height="78.5912" filterUnits="userSpaceOnUse" color-interpolation-filters="sRGB">
<feFlood flood-opacity="0" result="BackgroundImageFix"/>
<feBlend mode="normal" in="SourceGraphic" in2="BackgroundImageFix" result="shape"/>
<feGaussianBlur stdDeviation="13.6139" result="effect1_foregroundBlur_224_144"/>
</filter>
</defs>
</svg>
