<svg width="27" height="27" viewBox="0 0 27 27" fill="none" xmlns="http://www.w3.org/2000/svg">
<path d="M3.26733 10.2009V16.4851C3.26733 18.794 3.26733 18.794 5.44555 20.2643L11.4357 23.7276C12.3396 24.2504 13.8099 24.2504 14.703 23.7276L20.6931 20.2643C22.8713 18.794 22.8713 18.794 22.8713 16.496V10.2009C22.8713 7.90289 22.8713 7.90289 20.6931 6.43259L14.703 2.96923C13.8099 2.44646 12.3396 2.44646 11.4357 2.96923L5.44555 6.43259C3.26733 7.90289 3.26733 7.90289 3.26733 10.2009Z" stroke="#8B8C91" stroke-width="1.63366" stroke-linecap="round" stroke-linejoin="round"/>
<path d="M13.0693 16.616C14.8738 16.616 16.3367 15.1531 16.3367 13.3486C16.3367 11.5441 14.8738 10.0813 13.0693 10.0813C11.2648 10.0813 9.802 11.5441 9.802 13.3486C9.802 15.1531 11.2648 16.616 13.0693 16.616Z" stroke="#8B8C91" stroke-width="1.63366" stroke-linecap="round" stroke-linejoin="round"/>
</svg>
